<?xml version="1.0" standalone="no"?>
<!DOCTYPE svg PUBLIC "-//W3C//DTD SVG 20010904//EN"
 "http://www.w3.org/TR/2001/REC-SVG-20010904/DTD/svg10.dtd">
<svg version="1.0" xmlns="http://www.w3.org/2000/svg"
 width="145.000000pt" height="438.000000pt" viewBox="0 0 145.000000 438.000000"
 preserveAspectRatio="xMidYMid meet">

<g transform="translate(0.000000,438.000000) scale(0.100000,-0.100000)"
fill="#000000" stroke="none">
<path d="M63 4356 c-35 -29 -67 -113 -57 -150 9 -36 61 -74 104 -76 74 -4 92
0 122 30 28 28 30 35 26 84 -5 60 -29 98 -75 121 -45 22 -87 19 -120 -9z"/>
<path d="M112 3908 c-17 -17 -18 -3878 0 -3896 9 -9 157 -12 607 -12 548 0
602 2 666 19 40 11 64 21 55 24 -67 27 -131 31 -682 34 l-578 4 0 895 0 894
555 0 c629 0 703 7 651 58 -15 15 -74 17 -611 20 l-595 3 0 820 0 819 560 0
c560 0 660 5 660 35 0 35 -52 39 -642 43 l-577 3 -3 122 c-3 122 -3 122 -28
125 -14 2 -31 -3 -38 -10z"/>
</g>
</svg>
